<svg width="23" height="24" viewBox="0 0 23 24" fill="none" xmlns="http://www.w3.org/2000/svg">
<rect x="9.19336" y="5.74584" width="4.59667" height="12.6408" rx="2.29834" fill="#D9D9D9"/>
<circle cx="11.4917" cy="2.29834" r="2.29834" fill="#9D9D9D"/>
<rect x="17.0618" y="5.55005" width="4.59667" height="12.6408" rx="2.29834" transform="rotate(15 17.0618 5.55005)" fill="#D9D9D9"/>
<circle cx="20.174" cy="2.81487" r="2.29834" transform="rotate(15 20.174 2.81487)" fill="#9D9D9D"/>
<rect x="1.48706" y="6.73976" width="4.59667" height="12.6408" rx="2.29834" transform="rotate(-15 1.48706 6.73976)" fill="#D9D9D9"/>
<circle cx="2.81487" cy="2.81487" r="2.29834" transform="rotate(-15 2.81487 2.81487)" fill="#9D9D9D"/>
<path d="M20.641 13.79C20.9826 13.79 21.2616 14.0673 21.24 14.4082C21.1721 15.4795 20.9279 16.5337 20.5161 17.528C20.0252 18.7131 19.3057 19.7899 18.3986 20.697C17.4916 21.604 16.4148 22.3235 15.2297 22.8144C14.0446 23.3053 12.7744 23.5579 11.4917 23.5579C10.2089 23.5579 8.93876 23.3053 7.75366 22.8144C6.56856 22.3235 5.49175 21.604 4.58472 20.697C3.67768 19.7899 2.95818 18.7131 2.4673 17.528C2.05543 16.5337 1.81127 15.4795 1.74334 14.4082C1.72172 14.0673 2.00072 13.79 2.34236 13.79V13.79C2.68401 13.79 2.95864 14.0673 2.98339 14.4081C3.0494 15.3168 3.26066 16.2104 3.61033 17.0546C4.03904 18.0896 4.66741 19.03 5.45956 19.8221C6.25171 20.6143 7.19213 21.2427 8.22712 21.6714C9.26211 22.1001 10.3714 22.3207 11.4917 22.3207C12.612 22.3207 13.7213 22.1001 14.7562 21.6714C15.7912 21.2427 16.7317 20.6143 17.5238 19.8221C18.316 19.03 18.9443 18.0896 19.373 17.0546C19.7227 16.2104 19.934 15.3168 20 14.4081C20.0247 14.0673 20.2994 13.79 20.641 13.79V13.79Z" fill="#D9D9D9"/>
</svg>
