<svg width="16" height="19" viewBox="0 0 16 19" fill="none" xmlns="http://www.w3.org/2000/svg">
<rect x="5.51074" y="8.77694" width="2.19423" height="5.70501" rx="0.877694" fill="#D9D9D9"/>
<rect x="6.38843" y="9.88964" width="2.19423" height="5.70501" rx="0.877694" transform="rotate(-45 6.38843 9.88964)" fill="#D9D9D9"/>
<rect x="6.03406" y="12.7266" width="2.19423" height="5.70501" rx="0.877694" transform="rotate(45 6.03406 12.7266)" fill="#D9D9D9"/>
<path d="M12.3159 12.9758C12.5015 13.0848 12.6481 13.2606 12.7148 13.482L13.2561 15.2772C13.3957 15.7412 13.132 16.228 12.6669 16.3643L12.3002 16.4716C11.835 16.608 11.3442 16.342 11.2044 15.8779L10.793 14.5145L12.3159 12.9758Z" fill="#D9D9D9"/>
<rect x="5.51074" y="3.51077" width="3.07193" height="6.5827" rx="1.31654" fill="#D9D9D9"/>
<rect x="5.94531" y="4.38847" width="1.04184" height="3.06493" rx="0.520921" transform="rotate(60 5.94531 4.38847)" fill="#D9D9D9"/>
<rect x="7.70496" y="5.90303" width="1.04184" height="3.06493" rx="0.520921" transform="rotate(-88.9378 7.70496 5.90303)" fill="#D9D9D9"/>
<rect x="3.67102" y="5.70501" width="1.04184" height="3.06493" rx="0.520921" transform="rotate(15 3.67102 5.70501)" fill="#D9D9D9"/>
<rect x="10.3326" y="5.94883" width="1.04184" height="3.06493" rx="0.520921" transform="rotate(-133.938 10.3326 5.94883)" fill="#D9D9D9"/>
<rect x="5.51074" width="3.07193" height="3.07193" rx="1.53596" fill="#A7A7A7"/>
</svg>
